<mxfile host="app.diagrams.net" modified="2024-05-16T02:10:53.638Z" agent="Mozilla/5.0 (Windows NT 10.0; Win64; x64) AppleWebKit/537.36 (KHTML, like Gecko) Chrome/123.0.0.0 Safari/537.36 Edg/123.0.0.0" etag="qNO-p-f-KPuhJnMM52uE" version="24.4.2" type="github">
  <diagram id="C5RBs43oDa-KdzZeNtuy" name="Page-1">
    <mxGraphModel dx="1339" dy="793" grid="1" gridSize="10" guides="1" tooltips="1" connect="1" arrows="1" fold="1" page="1" pageScale="1" pageWidth="827" pageHeight="1169" math="0" shadow="0">
      <root>
        <mxCell id="WIyWlLk6GJQsqaUBKTNV-0" />
        <mxCell id="WIyWlLk6GJQsqaUBKTNV-1" parent="WIyWlLk6GJQsqaUBKTNV-0" />
        <mxCell id="bbjlnqHHPoMXTGZOsXGg-5" value="" style="edgeStyle=orthogonalEdgeStyle;rounded=0;orthogonalLoop=1;jettySize=auto;html=1;" edge="1" parent="WIyWlLk6GJQsqaUBKTNV-1" source="bbjlnqHHPoMXTGZOsXGg-2" target="bbjlnqHHPoMXTGZOsXGg-4">
          <mxGeometry relative="1" as="geometry" />
        </mxCell>
        <mxCell id="bbjlnqHHPoMXTGZOsXGg-2" value="更新订单数据" style="rounded=1;whiteSpace=wrap;html=1;" vertex="1" parent="WIyWlLk6GJQsqaUBKTNV-1">
          <mxGeometry x="330" y="40" width="120" height="60" as="geometry" />
        </mxCell>
        <mxCell id="bbjlnqHHPoMXTGZOsXGg-7" value="" style="edgeStyle=orthogonalEdgeStyle;rounded=0;orthogonalLoop=1;jettySize=auto;html=1;entryX=0.5;entryY=0;entryDx=0;entryDy=0;" edge="1" parent="WIyWlLk6GJQsqaUBKTNV-1" source="bbjlnqHHPoMXTGZOsXGg-4" target="bbjlnqHHPoMXTGZOsXGg-6">
          <mxGeometry relative="1" as="geometry" />
        </mxCell>
        <mxCell id="bbjlnqHHPoMXTGZOsXGg-8" value="false" style="edgeLabel;html=1;align=center;verticalAlign=middle;resizable=0;points=[];" vertex="1" connectable="0" parent="bbjlnqHHPoMXTGZOsXGg-7">
          <mxGeometry x="-0.0957" y="2" relative="1" as="geometry">
            <mxPoint x="-97" y="2" as="offset" />
          </mxGeometry>
        </mxCell>
        <mxCell id="bbjlnqHHPoMXTGZOsXGg-10" value="" style="edgeStyle=orthogonalEdgeStyle;rounded=0;orthogonalLoop=1;jettySize=auto;html=1;entryX=0.5;entryY=0;entryDx=0;entryDy=0;" edge="1" parent="WIyWlLk6GJQsqaUBKTNV-1" source="bbjlnqHHPoMXTGZOsXGg-4" target="bbjlnqHHPoMXTGZOsXGg-12">
          <mxGeometry relative="1" as="geometry">
            <mxPoint x="390" y="280" as="targetPoint" />
          </mxGeometry>
        </mxCell>
        <mxCell id="bbjlnqHHPoMXTGZOsXGg-11" value="true" style="edgeLabel;html=1;align=center;verticalAlign=middle;resizable=0;points=[];" vertex="1" connectable="0" parent="bbjlnqHHPoMXTGZOsXGg-10">
          <mxGeometry x="-0.1429" relative="1" as="geometry">
            <mxPoint as="offset" />
          </mxGeometry>
        </mxCell>
        <mxCell id="bbjlnqHHPoMXTGZOsXGg-4" value="&lt;br&gt;&lt;span style=&quot;color: rgb(0, 0, 0); font-family: Helvetica; font-size: 12px; font-style: normal; font-variant-ligatures: normal; font-variant-caps: normal; font-weight: 400; letter-spacing: normal; orphans: 2; text-align: center; text-indent: 0px; text-transform: none; widows: 2; word-spacing: 0px; -webkit-text-stroke-width: 0px; white-space: normal; background-color: rgb(251, 251, 251); text-decoration-thickness: initial; text-decoration-style: initial; text-decoration-color: initial; display: inline !important; float: none;&quot;&gt;检验时间、&lt;/span&gt;&lt;div&gt;&lt;span style=&quot;color: rgb(0, 0, 0); font-family: Helvetica; font-size: 12px; font-style: normal; font-variant-ligatures: normal; font-variant-caps: normal; font-weight: 400; letter-spacing: normal; orphans: 2; text-align: center; text-indent: 0px; text-transform: none; widows: 2; word-spacing: 0px; -webkit-text-stroke-width: 0px; white-space: normal; background-color: rgb(251, 251, 251); text-decoration-thickness: initial; text-decoration-style: initial; text-decoration-color: initial; display: inline !important; float: none;&quot;&gt;房间是否变动&lt;/span&gt;&lt;br&gt;&lt;br&gt;&lt;/div&gt;" style="rhombus;whiteSpace=wrap;html=1;" vertex="1" parent="WIyWlLk6GJQsqaUBKTNV-1">
          <mxGeometry x="295" y="140" width="190" height="70" as="geometry" />
        </mxCell>
        <mxCell id="bbjlnqHHPoMXTGZOsXGg-6" value="结束" style="whiteSpace=wrap;html=1;" vertex="1" parent="WIyWlLk6GJQsqaUBKTNV-1">
          <mxGeometry x="850" y="330" width="120" height="60" as="geometry" />
        </mxCell>
        <mxCell id="bbjlnqHHPoMXTGZOsXGg-19" value="" style="edgeStyle=orthogonalEdgeStyle;rounded=0;orthogonalLoop=1;jettySize=auto;html=1;" edge="1" parent="WIyWlLk6GJQsqaUBKTNV-1" source="bbjlnqHHPoMXTGZOsXGg-12" target="bbjlnqHHPoMXTGZOsXGg-18">
          <mxGeometry relative="1" as="geometry" />
        </mxCell>
        <mxCell id="bbjlnqHHPoMXTGZOsXGg-12" value="存在权限" style="rhombus;whiteSpace=wrap;html=1;" vertex="1" parent="WIyWlLk6GJQsqaUBKTNV-1">
          <mxGeometry x="325" y="280" width="130" height="80" as="geometry" />
        </mxCell>
        <mxCell id="bbjlnqHHPoMXTGZOsXGg-18" value="权限需要更新" style="rhombus;whiteSpace=wrap;html=1;" vertex="1" parent="WIyWlLk6GJQsqaUBKTNV-1">
          <mxGeometry x="322.5" y="430" width="135" height="90" as="geometry" />
        </mxCell>
        <mxCell id="bbjlnqHHPoMXTGZOsXGg-21" style="edgeStyle=orthogonalEdgeStyle;rounded=0;orthogonalLoop=1;jettySize=auto;html=1;exitX=1;exitY=0.5;exitDx=0;exitDy=0;entryX=0.025;entryY=0.633;entryDx=0;entryDy=0;entryPerimeter=0;" edge="1" parent="WIyWlLk6GJQsqaUBKTNV-1" source="bbjlnqHHPoMXTGZOsXGg-12" target="bbjlnqHHPoMXTGZOsXGg-6">
          <mxGeometry relative="1" as="geometry" />
        </mxCell>
        <mxCell id="bbjlnqHHPoMXTGZOsXGg-23" value="false" style="edgeLabel;html=1;align=center;verticalAlign=middle;resizable=0;points=[];" vertex="1" connectable="0" parent="bbjlnqHHPoMXTGZOsXGg-21">
          <mxGeometry x="-0.4978" y="-2" relative="1" as="geometry">
            <mxPoint as="offset" />
          </mxGeometry>
        </mxCell>
        <mxCell id="bbjlnqHHPoMXTGZOsXGg-22" style="edgeStyle=orthogonalEdgeStyle;rounded=0;orthogonalLoop=1;jettySize=auto;html=1;exitX=1;exitY=0.5;exitDx=0;exitDy=0;entryX=-0.008;entryY=0.65;entryDx=0;entryDy=0;entryPerimeter=0;" edge="1" parent="WIyWlLk6GJQsqaUBKTNV-1" source="bbjlnqHHPoMXTGZOsXGg-18" target="bbjlnqHHPoMXTGZOsXGg-6">
          <mxGeometry relative="1" as="geometry" />
        </mxCell>
        <mxCell id="bbjlnqHHPoMXTGZOsXGg-24" value="false" style="edgeLabel;html=1;align=center;verticalAlign=middle;resizable=0;points=[];" vertex="1" connectable="0" parent="bbjlnqHHPoMXTGZOsXGg-22">
          <mxGeometry x="-0.5196" y="1" relative="1" as="geometry">
            <mxPoint as="offset" />
          </mxGeometry>
        </mxCell>
      </root>
    </mxGraphModel>
  </diagram>
</mxfile>
